# xmcd
#
# Track frame offsets:
#	150
#	14082
#	31066
#	54452
#	73979
#	92114
#	111440
#	124303
#	139872
#	152212
#	171171
#	186147
#	199628
#
# Disc length: 2975 seconds
#
# Revision: 0
# Processed by: cddbd v1.5.2PL0 Copyright (c) Steve Scherf et al.
# Submitted via: EZCDAudioConverter 3.1.0.1
#
DISCID=bf0b9d0d
DTITLE=Dave Forestfield and Jarkka Rissanen - Songs our mama taught us
DYEAR=2015
DGENRE=
TTITLE0=This world is not my home
TTITLE1=I shall not be moved
TTITLE2=You gotta go down
TTITLE3=Get right church
TTITLE4=Handwriting on the wall
TTITLE5=John the revelator
TTITLE6=Two roads
TTITLE7=Don’t mind people grinnin’ in your face
TTITLE8=Somebody touched me
TTITLE9=Nobody’s fault but mine
TTITLE10=I’ll fly away
TTITLE11=Run on
TTITLE12=Let the church roll on
EXTD=
EXTT0=
EXTT1=
EXTT2=
EXTT3=
EXTT4=
EXTT5=
EXTT6=
EXTT7=
EXTT8=
EXTT9=
EXTT10=
EXTT11=
EXTT12=
PLAYORDER=
